<svg xmlns="http://www.w3.org/2000/svg" xmlns:svg="http://www.w3.org/2000/svg" id="svg2" width="100%" height="100%" version="1.1" viewBox="0 0 1000 1000"><title id="title">NUnit Icon</title><metadata id="metadata"/><g id="background"><circle style="fill:#005b0c" id="green_circle" cx="500" cy="500" r="480"/><circle style="fill:none;stroke:#fff;stroke-width:50;stroke-miterlimit:4;stroke-dasharray:none;stroke-opacity:1" id="ring" cx="500" cy="500" r="385"/><path id="letter_n" d="m 417.47137,355.35112 0,11.81538 q 25.77901,-34.01398 56.21257,-49.76782 30.7916,-16.11188 70.53424,-16.11188 38.66852,0 69.10208,16.82796 30.43356,16.82797 45.47132,47.61957 9.66713,17.90209 12.53146,38.66852 2.86434,20.76643 2.86434,52.99019 l 0,181.88527 q 0,29.35943 -13.60559,44.39719 -13.24755,15.03775 -34.73006,15.03775 -21.84056,0 -35.44615,-15.3958 -13.60559,-15.3958 -13.60559,-44.03914 l 0,-162.90905 q 0,-48.33565 -13.60559,-73.75662 -13.24755,-25.77901 -53.34823,-25.77901 -26.13706,0 -47.61957,15.75384 -21.48251,15.3958 -31.50768,42.60698 -7.16084,21.84055 -7.16084,81.63354 l 0,122.45032 q 0,29.71747 -13.96363,44.75523 -13.60559,14.67971 -35.44615,14.67971 -21.12447,0 -34.73006,-15.3958 -13.60559,-15.3958 -13.60559,-44.03914 l 0,-282.49503 q 0,-27.92726 12.17343,-41.53285 12.17342,-13.96363 33.29789,-13.96363 12.88951,0 23.27272,6.08671 10.38321,6.08671 16.46992,18.26013 6.44476,12.17343 6.44476,29.71748 z" style="font-style:normal;font-variant:normal;font-weight:400;font-stretch:normal;font-size:medium;line-height:125%;font-family:'Arial Rounded MT Bold';-inkscape-font-specification:'Arial Rounded MT Bold, ';text-align:center;letter-spacing:0;word-spacing:0;text-anchor:middle;fill:#fff;fill-opacity:1;stroke:none;stroke-width:1px;stroke-linecap:butt;stroke-linejoin:miter;stroke-opacity:1"/></g><g id="circles" style="opacity:1"><circle style="fill:#fff;stroke:none;stroke-width:50;stroke-miterlimit:4;stroke-dasharray:none;stroke-opacity:1" id="top_circle" cx="500" cy="118.743" r="60"/><circle id="right_circle" cx="183.013" cy="-1064.27" r="60" transform="matrix(-0.5,0.8660254,-0.8660254,-0.5,0,0)" style="fill:#fff;stroke:none;stroke-width:50;stroke-miterlimit:4;stroke-dasharray:none;stroke-opacity:1"/><circle style="fill:#fff;stroke:none;stroke-width:50;stroke-miterlimit:4;stroke-dasharray:none;stroke-opacity:1" id="left_circle" cx="-683.013" cy="-198.244" r="60" transform="matrix(-0.5,-0.8660254,0.8660254,-0.5,0,0)"/></g></svg>